<?xml version="1.0" encoding="UTF-8" standalone="no"?>
<svg xmlns:xlink="http://www.w3.org/1999/xlink" width="1425px" height="871px" viewBox="0 0 1425 871" version="1.1" xmlns="http://www.w3.org/2000/svg">
    <!-- Generator: Sketch 3.7.2 (28276) - http://www.bohemiancoding.com/sketch -->
    <title>particles</title>
    <desc>Created with Sketch.</desc>
    <defs></defs>
    <g id="-Home" stroke="none" stroke-width="1" fill="none" fill-rule="evenodd">
        <g id="01.-Web-Home" transform="translate(-5.000000, -199.000000)">
            <g id="particles" transform="translate(717.500000, 634.500000) rotate(-180.000000) translate(-717.500000, -634.500000) translate(5.000000, 199.000000)">
                <path d="M124.548387,427.54023 L157.451613,520.45977" id="Line" stroke="#ECF1FF"></path>
                <polygon id="Path-1" stroke="#ECF1FF" points="210 20 227.344 78.4651163 247.94 157.501292 225.176 250.612403 286.964 367.542636 324.904 419.511628 367.18 439 328.156 346.971576 311.896 274.431525 481 310.160207 333.576 183.485788 396.448 182.403101 354.172 143.426357 279.376 120.689922 245.772 73.0516796"></polygon>
                <polyline id="Path-2" stroke="#ECF1FF" points="366 438 227.169231 234.333333 283.569231 276.583333 287.907692 367.583333 328.038462 350.25 225 250.583333 331.292308 186.666667 355.153846 141.166667 283.569231 156.333333 277.061538 120.583333 249.946154 157.416667 246.692308 74 229.338462 81.5833333 324.784615 420.666667"></polyline>
                <polygon id="Path-3" stroke="#ECF1FF" points="209 18 285.605263 155.297297 332 183.405405 312.578947 269.891892 295.315789 338 230.578947 237.459459 283.447368 129.351351 232.736842 77.4594595"></polygon>
                <circle id="Oval-1" fill="#ECF1FF" cx="227" cy="80" r="4"></circle>
                <circle id="Oval-1" fill="#ECF1FF" cx="246" cy="75" r="4"></circle>
                <circle id="Oval-1" fill="#ECF1FF" cx="246" cy="156" r="4"></circle>
                <circle id="Oval-1" fill="#ECF1FF" cx="283" cy="156" r="4"></circle>
                <circle id="Oval-1" fill="#ECF1FF" cx="279" cy="130" r="4"></circle>
                <circle id="Oval-1" fill="#ECF1FF" cx="276" cy="120" r="4"></circle>
                <circle id="Oval-1" fill="#ECF1FF" cx="353" cy="143" r="4"></circle>
                <circle id="Oval-1" fill="#ECF1FF" cx="394" cy="182" r="4"></circle>
                <circle id="Oval-1" fill="#ECF1FF" cx="332" cy="184" r="4"></circle>
                <circle id="Oval-1" fill="#ECF1FF" cx="228" cy="235" r="4"></circle>
                <circle id="Oval-1" fill="#ECF1FF" cx="224" cy="249" r="4"></circle>
                <circle id="Oval-1" fill="#ECF1FF" cx="310" cy="274" r="4"></circle>
                <circle id="Oval-1" fill="#ECF1FF" cx="480" cy="309" r="4"></circle>
                <circle id="Oval-1" fill="#ECF1FF" cx="328" cy="347" r="4"></circle>
                <circle id="Oval-1" fill="#ECF1FF" cx="294" cy="341" r="4"></circle>
                <circle id="Oval-1" fill="#ECF1FF" cx="288" cy="369" r="4"></circle>
                <circle id="Oval-1" fill="#ECF1FF" cx="324" cy="419" r="4"></circle>
                <circle id="Oval-1" fill="#ECF1FF" cx="366" cy="436" r="4"></circle>
                <circle id="Oval-1" fill="#ECF1FF" cx="167" cy="360" r="4"></circle>
                <circle id="Oval-1" fill="#ECF1FF" cx="46" cy="88" r="4"></circle>
                <circle id="Oval-1" fill="#ECF1FF" cx="375" cy="32" r="4"></circle>
                <circle id="Oval-1" fill="#ECF1FF" cx="208" cy="19" r="4"></circle>
                <circle id="Oval-1" fill="#ECF1FF" cx="327" cy="649" r="4"></circle>
                <circle id="Oval-1" fill="#ECF1FF" cx="86" cy="575" r="4"></circle>
                <circle id="Oval-1" fill="#ECF1FF" cx="21" cy="604" r="4"></circle>
                <circle id="Oval-1" fill="#ECF1FF" cx="153" cy="653" r="4"></circle>
                <circle id="Oval-1" fill="#ECF1FF" cx="157" cy="703" r="4"></circle>
                <circle id="Oval-1" fill="#ECF1FF" cx="100" cy="754" r="4"></circle>
                <circle id="Oval-1" fill="#ECF1FF" cx="4" cy="795" r="4"></circle>
                <circle id="Oval-1" fill="#ECF1FF" cx="81" cy="867" r="4"></circle>
                <circle id="Oval-1" fill="#ECF1FF" cx="352" cy="801" r="4"></circle>
                <circle id="Oval-1" fill="#ECF1FF" cx="771" cy="754" r="4"></circle>
                <circle id="Oval-1" fill="#ECF1FF" cx="898" cy="631" r="4"></circle>
                <ellipse id="Oval-1" fill="#ECF1FF" cx="1137" cy="590" rx="4" ry="4"></ellipse>
                <circle id="Oval-1" fill="#ECF1FF" cx="1003" cy="461" r="4"></circle>
                <circle id="Oval-1" fill="#ECF1FF" cx="842" cy="556" r="4"></circle>
                <circle id="Oval-1" fill="#ECF1FF" cx="799" cy="554" r="4"></circle>
                <circle id="Oval-1" fill="#ECF1FF" cx="713" cy="525" r="4"></circle>
                <circle id="Oval-1" fill="#ECF1FF" cx="722" cy="418" r="4"></circle>
                <circle id="Oval-1" fill="#ECF1FF" cx="616" cy="524" r="4"></circle>
                <circle id="Oval-1" fill="#ECF1FF" cx="669" cy="576" r="4"></circle>
                <circle id="Oval-1" fill="#ECF1FF" cx="487" cy="516" r="4"></circle>
                <circle id="Oval-1" fill="#ECF1FF" cx="389" cy="547" r="4"></circle>
                <circle id="Oval-1" fill="#ECF1FF" cx="504" cy="648" r="4"></circle>
                <circle id="Oval-1" fill="#ECF1FF" cx="496" cy="626" r="4"></circle>
                <circle id="Oval-1" fill="#ECF1FF" cx="609" cy="712" r="4"></circle>
                <circle id="Oval-1" fill="#ECF1FF" cx="159" cy="523" r="4"></circle>
                <circle id="Oval-1" fill="#ECF1FF" cx="124" cy="425" r="4"></circle>
                <circle id="Oval-1" fill="#ECF1FF" cx="652" cy="442" r="4"></circle>
                <ellipse id="Oval-1" fill="#ECF1FF" cx="1248" cy="423" rx="4" ry="4"></ellipse>
                <ellipse id="Oval-1" fill="#ECF1FF" cx="1248" cy="544" rx="4" ry="4"></ellipse>
                <ellipse id="Oval-1" fill="#ECF1FF" cx="1189" cy="795" rx="4" ry="4"></ellipse>
                <ellipse id="Oval-1" fill="#ECF1FF" cx="1199" cy="807" rx="4" ry="4"></ellipse>
                <ellipse id="Oval-1" fill="#ECF1FF" cx="1224" cy="774" rx="4" ry="4"></ellipse>
                <ellipse id="Oval-1" fill="#ECF1FF" cx="1292" cy="731" rx="4" ry="4"></ellipse>
                <ellipse id="Oval-1" fill="#ECF1FF" cx="1330" cy="613" rx="4" ry="4"></ellipse>
                <ellipse id="Oval-1" fill="#ECF1FF" cx="1358" cy="683" rx="4" ry="4"></ellipse>
                <ellipse id="Oval-1" fill="#ECF1FF" cx="1200" cy="685" rx="4" ry="4"></ellipse>
                <ellipse id="Oval-1" fill="#ECF1FF" cx="1204" cy="795" rx="4" ry="4"></ellipse>
                <ellipse id="Oval-1" fill="#ECF1FF" cx="1421" cy="347" rx="4" ry="4"></ellipse>
                <circle id="Oval-1" fill="#ECF1FF" cx="706" cy="147" r="4"></circle>
                <circle id="Oval-1" fill="#ECF1FF" cx="836" cy="282" r="4"></circle>
                <circle id="Oval-1" fill="#ECF1FF" cx="859" cy="313" r="4"></circle>
                <circle id="Oval-1" fill="#ECF1FF" cx="920" cy="265" r="4"></circle>
                <circle id="Oval-1" fill="#ECF1FF" cx="909" cy="185" r="4"></circle>
                <circle id="Oval-1" fill="#ECF1FF" cx="933" cy="144" r="4"></circle>
                <circle id="Oval-1" fill="#ECF1FF" cx="971" cy="169" r="4"></circle>
                <circle id="Oval-1" fill="#ECF1FF" cx="990" cy="216" r="4"></circle>
                <circle id="Oval-1" fill="#ECF1FF" cx="1024" cy="251" r="4"></circle>
                <ellipse id="Oval-1" fill="#ECF1FF" cx="1114" cy="293" rx="4" ry="4"></ellipse>
                <ellipse id="Oval-1" fill="#ECF1FF" cx="1197" cy="330" rx="4" ry="4"></ellipse>
                <ellipse id="Oval-1" fill="#ECF1FF" cx="1256" cy="284" rx="4" ry="4"></ellipse>
                <ellipse id="Oval-1" fill="#ECF1FF" cx="1357" cy="343" rx="4" ry="4"></ellipse>
                <ellipse id="Oval-1" fill="#ECF1FF" cx="1374" cy="259" rx="4" ry="4"></ellipse>
                <ellipse id="Oval-1" fill="#ECF1FF" cx="1323" cy="164" rx="4" ry="4"></ellipse>
                <ellipse id="Oval-1" fill="#ECF1FF" cx="1278" cy="186" rx="4" ry="4"></ellipse>
                <ellipse id="Oval-1" fill="#ECF1FF" cx="1387" cy="128" rx="4" ry="4"></ellipse>
                <ellipse id="Oval-1" fill="#ECF1FF" cx="1263" cy="47" rx="4" ry="4"></ellipse>
                <ellipse id="Oval-1" fill="#ECF1FF" cx="1094" cy="47" rx="4" ry="4"></ellipse>
                <ellipse id="Oval-1" fill="#ECF1FF" cx="1066" cy="37" rx="4" ry="4"></ellipse>
                <circle id="Oval-1" fill="#ECF1FF" cx="1030" cy="33" r="4"></circle>
                <circle id="Oval-1" fill="#ECF1FF" cx="956" cy="46" r="4"></circle>
                <circle id="Oval-1" fill="#ECF1FF" cx="949" cy="68" r="4"></circle>
                <circle id="Oval-1" fill="#ECF1FF" cx="678" cy="83" r="4"></circle>
                <circle id="Oval-1" fill="#ECF1FF" cx="734" cy="4" r="4"></circle>
                <circle id="Oval-1" fill="#ECF1FF" cx="795" cy="90" r="4"></circle>
                <circle id="Oval-1" fill="#ECF1FF" cx="517" cy="205" r="4"></circle>
                <circle id="Oval-1" fill="#ECF1FF" cx="500" cy="120" r="4"></circle>
                <circle id="Oval-1" fill="#ECF1FF" cx="614" cy="191" r="4"></circle>
                <polyline id="Path-5" stroke="#ECF1FF" points="490.833333 515 389 549.622951 506 649.163934 496.25 627.52459 610 713"></polyline>
                <polygon id="Path-6" stroke="#ECF1FF" points="82.1690141 867 98.4366197 755.193309 157 706.345725 152.661972 654.241636 87.5915493 575 19.2676056 605.394052 152.661972 654.241636 98.4366197 755.193309 3 795.356877"></polygon>
                <polygon id="Path-7" stroke="#ECF1FF" points="898 631 841.6 556.015306 800.384615 553.841837 712.530769 524.5 668.061538 576.663265 616 524.5 763.507692 508.19898 722.292308 418 712.530769 524.5"></polygon>
                <path d="M1003,461 L1139,590" id="Path-8" stroke="#ECF1FF"></path>
                <polygon id="Path-9" stroke="#ECF1FF" points="500 121 515.17757 206 616 190.936709"></polygon>
                <polyline id="Path-10" stroke="#ECF1FF" points="677 83.5555556 734.376147 3 795 90"></polyline>
                <path d="M862.099609,314.741818 L835,282.232727 L920.634766,267.061818 L855.595703,314.741818 L920.634766,267.061818 L907.626953,182.538182 L931.474609,142.443636 C931.474609,142.443636 934.463411,144.543201 935.957812,145.592984 C947.832552,153.934716 971.582031,170.618182 971.582031,170.618182 L907.626953,186.872727 L935.957813,145.592988 L990.009766,215.047273 L1031.20117,321.243636 L1112.5,291.985455 L1163.44727,206.378182 L990.009766,215.047273 L1023.61328,250.807273 L1195.9668,330.996364 L1256.66992,283.316364 L1358.56445,344 L1373.74023,258.392727 L1261.00586,46 L1390,129.44 L1276.18164,186.872727" id="Path-11" stroke="#ECF1FF"></path>
                <polyline id="Path-12" stroke="#ECF1FF" points="1093.16667 48.3636364 1104 8 1066.08333 35.2727273 1030.33333 32 956.666667 46.1818182 948 68 1030.33333 32"></polyline>
                <polyline id="Path-13" stroke="#ECF1FF" points="1331.89189 616 1360 682.144578 1287.56757 727.686747 1203.24324 796 1200 685.39759 1360 685.39759"></polyline>
                <polygon id="Path-14" stroke="#ECF1FF" points="1294 730.354545 1200.83333 686 1225.75 774.709091 1199.75 805 1190 795.263636"></polygon>
            </g>
        </g>
    </g>
</svg>
